<svg width="122" height="34" viewBox="0 0 122 34" fill="none" xmlns="http://www.w3.org/2000/svg">
<path d="M8.18 1.61566V15.5557H5.18V1.61566H8.18ZM13.08 1.53566V2.37566H0.28V1.53566H13.08ZM13.08 2.31566V4.67566L12.88 4.65566V4.43566C12.88 3.809 12.6933 3.31566 12.32 2.95566C11.96 2.58233 11.4667 2.389 10.84 2.37566V2.31566H13.08ZM13.08 1.17566V1.75566L10.64 1.53566C10.9333 1.53566 11.24 1.51566 11.56 1.47566C11.8933 1.43566 12.2 1.389 12.48 1.33566C12.76 1.28233 12.96 1.229 13.08 1.17566ZM5.24 14.0957V15.5557H3.64V15.3557C3.64 15.3557 3.68 15.3557 3.76 15.3557C3.85333 15.3557 3.9 15.3557 3.9 15.3557C4.24667 15.3557 4.54 15.2357 4.78 14.9957C5.03333 14.7423 5.16667 14.4423 5.18 14.0957H5.24ZM8.12 14.0957H8.18C8.19333 14.4423 8.32 14.7423 8.56 14.9957C8.81333 15.2357 9.11333 15.3557 9.46 15.3557C9.46 15.3557 9.5 15.3557 9.58 15.3557C9.67333 15.3557 9.72 15.3557 9.72 15.3557V15.5557H8.12V14.0957ZM2.5 2.31566V2.37566C1.88667 2.389 1.39333 2.58233 1.02 2.95566C0.66 3.31566 0.48 3.809 0.48 4.43566V4.65566L0.28 4.67566V2.31566H2.5ZM0.28 1.17566C0.413333 1.229 0.613333 1.28233 0.88 1.33566C1.16 1.389 1.46667 1.43566 1.8 1.47566C2.13333 1.51566 2.44 1.53566 2.72 1.53566L0.28 1.75566V1.17566ZM17.4425 1.15566L23.9825 15.4357H20.3825L16.2225 5.01566L17.4425 1.15566ZM13.1425 14.0957C13.0358 14.3623 13.0158 14.589 13.0825 14.7757C13.1492 14.9623 13.2625 15.109 13.4225 15.2157C13.5825 15.309 13.7425 15.3557 13.9025 15.3557H14.0825V15.5557H9.8025V15.3557C9.8025 15.3557 9.83583 15.3557 9.9025 15.3557C9.95583 15.3557 9.9825 15.3557 9.9825 15.3557C10.2892 15.3557 10.6025 15.2623 10.9225 15.0757C11.2558 14.8757 11.5292 14.549 11.7425 14.0957H13.1425ZM17.4425 1.15566L17.5225 3.59566L12.5625 15.4957H11.1025L16.2825 3.77566C16.3225 3.69566 16.3892 3.549 16.4825 3.33566C16.5892 3.109 16.6958 2.85566 16.8025 2.57566C16.9225 2.29566 17.0292 2.029 17.1225 1.77566C17.2158 1.509 17.2625 1.30233 17.2625 1.15566H17.4425ZM19.5425 10.7957V11.6357H13.6625V10.7957H19.5425ZM19.8425 14.0957H23.3425C23.5692 14.549 23.8425 14.8757 24.1625 15.0757C24.4825 15.2623 24.7958 15.3557 25.1025 15.3557C25.1025 15.3557 25.1292 15.3557 25.1825 15.3557C25.2358 15.3557 25.2625 15.3557 25.2625 15.3557V15.5557H18.9025V15.3557H19.0825C19.3492 15.3557 19.5825 15.249 19.7825 15.0357C19.9825 14.809 20.0025 14.4957 19.8425 14.0957ZM15.0225 0.375663C14.6892 0.375663 14.4025 0.26233 14.1625 0.0356636C13.9358 -0.204336 13.8225 -0.491003 13.8225 -0.824337C13.8225 -1.171 13.9358 -1.45767 14.1625 -1.68434C14.4025 -1.911 14.6892 -2.02434 15.0225 -2.02434C15.3558 -2.02434 15.6358 -1.911 15.8625 -1.68434C16.1025 -1.45767 16.2225 -1.171 16.2225 -0.824337C16.2225 -0.491003 16.1025 -0.204336 15.8625 0.0356636C15.6358 0.26233 15.3558 0.375663 15.0225 0.375663ZM19.6825 0.375663C19.3492 0.375663 19.0625 0.26233 18.8225 0.0356636C18.5958 -0.204336 18.4825 -0.491003 18.4825 -0.824337C18.4825 -1.171 18.5958 -1.45767 18.8225 -1.68434C19.0625 -1.911 19.3492 -2.02434 19.6825 -2.02434C20.0158 -2.02434 20.2958 -1.911 20.5225 -1.68434C20.7625 -1.45767 20.8825 -1.171 20.8825 -0.824337C20.8825 -0.491003 20.7625 -0.204336 20.5225 0.0356636C20.2958 0.26233 20.0158 0.375663 19.6825 0.375663ZM26.6584 1.55566H30.1184C31.0918 1.55566 31.9584 1.67566 32.7184 1.91566C33.4918 2.14233 34.0984 2.509 34.5384 3.01566C34.9784 3.509 35.1984 4.16233 35.1984 4.97566C35.1984 5.589 35.0784 6.109 34.8384 6.53566C34.6118 6.96233 34.3118 7.289 33.9384 7.51566C33.5651 7.74233 33.1718 7.88233 32.7584 7.93566C33.4251 7.989 34.0251 8.17566 34.5584 8.49566C35.1051 8.81566 35.5318 9.24233 35.8384 9.77566C36.1451 10.309 36.2984 10.9357 36.2984 11.6557C36.2984 12.509 36.0651 13.229 35.5984 13.8157C35.1318 14.389 34.4718 14.8223 33.6184 15.1157C32.7784 15.409 31.7984 15.5557 30.6784 15.5557H28.6984C28.6984 15.5557 28.6984 15.4823 28.6984 15.3357C28.7118 15.1757 28.7184 15.0223 28.7184 14.8757C28.7184 14.729 28.7184 14.6557 28.7184 14.6557H29.7984C30.3984 14.6557 30.9251 14.5423 31.3784 14.3157C31.8451 14.089 32.2051 13.7357 32.4584 13.2557C32.7251 12.7757 32.8584 12.1623 32.8584 11.4157C32.8584 10.829 32.7651 10.329 32.5784 9.91566C32.4051 9.50233 32.1651 9.169 31.8584 8.91566C31.5651 8.649 31.2184 8.45566 30.8184 8.33566C30.4184 8.21566 29.9984 8.15566 29.5584 8.15566V7.97566C29.8651 7.97566 30.1651 7.929 30.4584 7.83566C30.7518 7.729 31.0118 7.569 31.2384 7.35566C31.4784 7.14233 31.6651 6.86233 31.7984 6.51566C31.9318 6.15566 31.9984 5.729 31.9984 5.23566C31.9984 4.55566 31.8918 4.009 31.6784 3.59566C31.4784 3.18233 31.1851 2.88233 30.7984 2.69566C30.4118 2.509 29.9651 2.41566 29.4584 2.41566H26.8584C26.8584 2.40233 26.8384 2.329 26.7984 2.19566C26.7718 2.049 26.7384 1.909 26.6984 1.77566C26.6718 1.629 26.6584 1.55566 26.6584 1.55566ZM28.8784 1.55566V15.5557H25.8784V1.55566H28.8784ZM25.9384 14.0957V15.5557H24.3384V15.3557C24.3651 15.3557 24.4118 15.3557 24.4784 15.3557C24.5451 15.3557 24.5851 15.3557 24.5984 15.3557C24.9451 15.3557 25.2384 15.2357 25.4784 14.9957C25.7318 14.7423 25.8651 14.4423 25.8784 14.0957H25.9384ZM25.9384 3.01566H25.8784C25.8651 2.669 25.7318 2.37566 25.4784 2.13566C25.2384 1.88233 24.9451 1.75566 24.5984 1.75566C24.5851 1.75566 24.5451 1.75566 24.4784 1.75566C24.4118 1.75566 24.3651 1.75566 24.3384 1.75566V1.55566H25.9384V3.01566ZM39.5858 1.57566L43.6858 9.01566L40.8458 9.29566L36.1658 1.57566H39.5858ZM43.7858 9.11566V15.5557H40.7858V9.11566H43.7858ZM47.0058 1.57566H48.5658L43.5858 9.51566L42.5658 9.31566L47.0058 1.57566ZM46.1858 2.99566C46.3058 2.809 46.3391 2.62233 46.2858 2.43566C46.2325 2.23566 46.1325 2.07566 45.9858 1.95566C45.8391 1.82233 45.6724 1.75566 45.4858 1.75566C45.4858 1.75566 45.4458 1.75566 45.3658 1.75566C45.2858 1.75566 45.2458 1.75566 45.2458 1.75566V1.55566H50.0258V1.75566H49.7458C49.3325 1.75566 48.9391 1.87566 48.5658 2.11566C48.2058 2.35566 47.9258 2.629 47.7258 2.93566L46.1858 2.99566ZM40.3658 2.99566L36.9858 2.93566C36.7991 2.629 36.5258 2.35566 36.1658 2.11566C35.8058 1.87566 35.4124 1.75566 34.9858 1.75566H34.7058V1.55566H41.3258V1.75566C41.3258 1.75566 41.2791 1.75566 41.1858 1.75566C41.1058 1.75566 41.0658 1.75566 41.0658 1.75566C40.7724 1.75566 40.5458 1.89566 40.3858 2.17566C40.2391 2.44233 40.2324 2.71566 40.3658 2.99566ZM40.8458 14.0957V15.5557H39.2458V15.3557C39.2458 15.3557 39.2858 15.3557 39.3658 15.3557C39.4458 15.3557 39.4924 15.3557 39.5058 15.3557C39.8524 15.3557 40.1458 15.2357 40.3858 14.9957C40.6391 14.7423 40.7724 14.4423 40.7858 14.0957H40.8458ZM43.7258 14.0957H43.7858C43.7858 14.4423 43.9124 14.7423 44.1658 14.9957C44.4191 15.2357 44.7191 15.3557 45.0658 15.3557C45.0658 15.3557 45.1058 15.3557 45.1858 15.3557C45.2658 15.3557 45.3058 15.3557 45.3058 15.3557V15.5557H43.7258V14.0957ZM55.1288 1.55566H58.5888C59.5621 1.55566 60.4288 1.67566 61.1888 1.91566C61.9621 2.14233 62.5688 2.509 63.0088 3.01566C63.4488 3.509 63.6688 4.16233 63.6688 4.97566C63.6688 5.589 63.5488 6.109 63.3088 6.53566C63.0821 6.96233 62.7821 7.289 62.4088 7.51566C62.0354 7.74233 61.6421 7.88233 61.2288 7.93566C61.8954 7.989 62.4954 8.17566 63.0288 8.49566C63.5754 8.81566 64.0021 9.24233 64.3088 9.77566C64.6154 10.309 64.7688 10.9357 64.7688 11.6557C64.7688 12.509 64.5354 13.229 64.0688 13.8157C63.6021 14.389 62.9421 14.8223 62.0888 15.1157C61.2488 15.409 60.2688 15.5557 59.1488 15.5557H57.1688C57.1688 15.5557 57.1688 15.4823 57.1688 15.3357C57.1821 15.1757 57.1888 15.0223 57.1888 14.8757C57.1888 14.729 57.1888 14.6557 57.1888 14.6557H58.2688C58.8688 14.6557 59.3954 14.5423 59.8488 14.3157C60.3154 14.089 60.6754 13.7357 60.9288 13.2557C61.1954 12.7757 61.3288 12.1623 61.3288 11.4157C61.3288 10.829 61.2354 10.329 61.0488 9.91566C60.8754 9.50233 60.6354 9.169 60.3288 8.91566C60.0354 8.649 59.6888 8.45566 59.2888 8.33566C58.8888 8.21566 58.4688 8.15566 58.0288 8.15566V7.97566C58.3354 7.97566 58.6354 7.929 58.9288 7.83566C59.2221 7.729 59.4821 7.569 59.7088 7.35566C59.9488 7.14233 60.1354 6.86233 60.2688 6.51566C60.4021 6.15566 60.4688 5.729 60.4688 5.23566C60.4688 4.55566 60.3621 4.009 60.1488 3.59566C59.9488 3.18233 59.6554 2.88233 59.2688 2.69566C58.8821 2.509 58.4354 2.41566 57.9288 2.41566H55.3288C55.3288 2.40233 55.3088 2.329 55.2688 2.19566C55.2421 2.049 55.2088 1.909 55.1688 1.77566C55.1421 1.629 55.1288 1.55566 55.1288 1.55566ZM57.3488 1.55566V15.5557H54.3488V1.55566H57.3488ZM54.4088 14.0957V15.5557H52.8088V15.3557C52.8354 15.3557 52.8821 15.3557 52.9488 15.3557C53.0154 15.3557 53.0554 15.3557 53.0688 15.3557C53.4154 15.3557 53.7088 15.2357 53.9488 14.9957C54.2021 14.7423 54.3354 14.4423 54.3488 14.0957H54.4088ZM54.4088 3.01566H54.3488C54.3354 2.669 54.2021 2.37566 53.9488 2.13566C53.7088 1.88233 53.4154 1.75566 53.0688 1.75566C53.0554 1.75566 53.0154 1.75566 52.9488 1.75566C52.8821 1.75566 52.8354 1.75566 52.8088 1.75566V1.55566H54.4088V3.01566ZM68.0561 1.57566L72.1561 9.01566L69.3161 9.29566L64.6361 1.57566H68.0561ZM72.2561 9.11566V15.5557H69.2561V9.11566H72.2561ZM75.4761 1.57566H77.0361L72.0561 9.51566L71.0361 9.31566L75.4761 1.57566ZM74.6561 2.99566C74.7761 2.809 74.8094 2.62233 74.7561 2.43566C74.7028 2.23566 74.6028 2.07566 74.4561 1.95566C74.3094 1.82233 74.1428 1.75566 73.9561 1.75566C73.9561 1.75566 73.9161 1.75566 73.8361 1.75566C73.7561 1.75566 73.7161 1.75566 73.7161 1.75566V1.55566H78.4961V1.75566H78.2161C77.8028 1.75566 77.4094 1.87566 77.0361 2.11566C76.6761 2.35566 76.3961 2.629 76.1961 2.93566L74.6561 2.99566ZM68.8361 2.99566L65.4561 2.93566C65.2694 2.629 64.9961 2.35566 64.6361 2.11566C64.2761 1.87566 63.8828 1.75566 63.4561 1.75566H63.1761V1.55566H69.7961V1.75566C69.7961 1.75566 69.7494 1.75566 69.6561 1.75566C69.5761 1.75566 69.5361 1.75566 69.5361 1.75566C69.2428 1.75566 69.0161 1.89566 68.8561 2.17566C68.7094 2.44233 68.7028 2.71566 68.8361 2.99566ZM69.3161 14.0957V15.5557H67.7161V15.3557C67.7161 15.3557 67.7561 15.3557 67.8361 15.3557C67.9161 15.3557 67.9628 15.3557 67.9761 15.3557C68.3228 15.3557 68.6161 15.2357 68.8561 14.9957C69.1094 14.7423 69.2428 14.4423 69.2561 14.0957H69.3161ZM72.1961 14.0957H72.2561C72.2561 14.4423 72.3828 14.7423 72.6361 14.9957C72.8894 15.2357 73.1894 15.3557 73.5361 15.3557C73.5361 15.3557 73.5761 15.3557 73.6561 15.3557C73.7361 15.3557 73.7761 15.3557 73.7761 15.3557V15.5557H72.1961V14.0957ZM90.9773 9.95566V13.2557C90.6573 13.6557 90.1773 14.0557 89.5373 14.4557C88.9107 14.8557 88.1573 15.189 87.2773 15.4557C86.3973 15.709 85.4173 15.8357 84.3373 15.8357C82.8173 15.8357 81.4907 15.5423 80.3573 14.9557C79.224 14.3557 78.344 13.509 77.7173 12.4157C77.0907 11.3223 76.7773 10.029 76.7773 8.53566C76.7773 7.04233 77.084 5.75566 77.6973 4.67566C78.324 3.59566 79.2107 2.76233 80.3573 2.17566C81.5173 1.57566 82.884 1.27566 84.4573 1.27566C85.1907 1.27566 85.904 1.329 86.5973 1.43566C87.2907 1.529 87.9307 1.65566 88.5173 1.81566C89.104 1.97566 89.5907 2.16233 89.9773 2.37566L90.0173 5.79566H89.8373C89.584 4.889 89.2173 4.169 88.7373 3.63566C88.2573 3.089 87.6973 2.70233 87.0573 2.47566C86.4307 2.23566 85.764 2.11566 85.0573 2.11566C83.9773 2.11566 83.0573 2.38233 82.2973 2.91566C81.5507 3.43566 80.984 4.18233 80.5973 5.15566C80.224 6.129 80.0373 7.29566 80.0373 8.65566C80.0373 9.93566 80.2107 11.0557 80.5573 12.0157C80.9173 12.9623 81.4373 13.6957 82.1173 14.2157C82.7973 14.7223 83.624 14.9823 84.5973 14.9957C85.0907 14.9957 85.564 14.9223 86.0173 14.7757C86.484 14.6157 86.8907 14.389 87.2373 14.0957C87.584 13.8023 87.8307 13.4423 87.9773 13.0157L87.9973 9.95566C87.9973 9.35566 87.6573 9.05566 86.9773 9.05566H86.6573V8.85566H92.2773V9.05566H91.9773C91.284 9.05566 90.9507 9.35566 90.9773 9.95566ZM106.496 9.95566V13.2557C106.176 13.6557 105.696 14.0557 105.056 14.4557C104.429 14.8557 103.676 15.189 102.796 15.4557C101.916 15.709 100.936 15.8357 99.8561 15.8357C98.3361 15.8357 97.0094 15.5423 95.8761 14.9557C94.7428 14.3557 93.8628 13.509 93.2361 12.4157C92.6094 11.3223 92.2961 10.029 92.2961 8.53566C92.2961 7.04233 92.6028 5.75566 93.2161 4.67566C93.8428 3.59566 94.7294 2.76233 95.8761 2.17566C97.0361 1.57566 98.4028 1.27566 99.9761 1.27566C100.709 1.27566 101.423 1.329 102.116 1.43566C102.809 1.529 103.449 1.65566 104.036 1.81566C104.623 1.97566 105.109 2.16233 105.496 2.37566L105.536 5.79566H105.356C105.103 4.889 104.736 4.169 104.256 3.63566C103.776 3.089 103.216 2.70233 102.576 2.47566C101.949 2.23566 101.283 2.11566 100.576 2.11566C99.4961 2.11566 98.5761 2.38233 97.8161 2.91566C97.0694 3.43566 96.5028 4.18233 96.1161 5.15566C95.7428 6.129 95.5561 7.29566 95.5561 8.65566C95.5561 9.93566 95.7294 11.0557 96.0761 12.0157C96.4361 12.9623 96.9561 13.6957 97.6361 14.2157C98.3161 14.7223 99.1428 14.9823 100.116 14.9957C100.609 14.9957 101.083 14.9223 101.536 14.7757C102.003 14.6157 102.409 14.389 102.756 14.0957C103.103 13.8023 103.349 13.4423 103.496 13.0157L103.516 9.95566C103.516 9.35566 103.176 9.05566 102.496 9.05566H102.176V8.85566H107.796V9.05566H107.496C106.803 9.05566 106.469 9.35566 106.496 9.95566ZM7.44 19.2757C7.97333 19.2757 8.49333 19.329 9 19.4357C9.52 19.5423 9.99333 19.7023 10.42 19.9157C10.8467 20.1157 11.1733 20.3757 11.4 20.6957L10.68 23.5557H10.5C10.5 22.9557 10.4133 22.3957 10.24 21.8757C10.0667 21.3557 9.79333 20.9357 9.42 20.6157C9.06 20.2823 8.57333 20.1157 7.96 20.1157C7.29333 20.1157 6.74667 20.3357 6.32 20.7757C5.90667 21.2157 5.7 21.7757 5.7 22.4557C5.7 23.229 5.98667 23.969 6.56 24.6757C7.14667 25.369 7.98667 26.1957 9.08 27.1557C9.36 27.3957 9.67333 27.6757 10.02 27.9957C10.38 28.3157 10.7333 28.6223 11.08 28.9157C11.44 29.209 11.74 29.4623 11.98 29.6757C12.7 30.289 13.3533 30.849 13.94 31.3557C14.5267 31.8623 15.0667 32.289 15.56 32.6357C16.0533 32.969 16.52 33.2023 16.96 33.3357V33.5557C16.44 33.609 15.84 33.6423 15.16 33.6557C14.48 33.6823 13.78 33.6157 13.06 33.4557C12.34 33.2957 11.64 32.9757 10.96 32.4957C10.6133 32.2423 10.24 31.9557 9.84 31.6357C9.44 31.3157 9.04 30.9957 8.64 30.6757C8.25333 30.3423 7.89333 30.0357 7.56 29.7557C7.24 29.4757 6.98 29.249 6.78 29.0757C6.00667 28.409 5.3 27.749 4.66 27.0957C4.03333 26.4423 3.53333 25.769 3.16 25.0757C2.78667 24.3823 2.6 23.6357 2.6 22.8357C2.6 22.2223 2.73333 21.6957 3 21.2557C3.26667 20.8023 3.62667 20.429 4.08 20.1357C4.54667 19.8423 5.06667 19.629 5.64 19.4957C6.22667 19.349 6.82667 19.2757 7.44 19.2757ZM14.16 26.6357C14.1867 27.3557 14.14 28.0623 14.02 28.7557C13.9 29.4357 13.6867 30.0757 13.38 30.6757C13.0867 31.2757 12.68 31.809 12.16 32.2757C11.6533 32.7423 11.0133 33.109 10.24 33.3757C9.48 33.629 8.56667 33.7557 7.5 33.7557C6.9 33.7557 6.27333 33.709 5.62 33.6157C4.96667 33.5223 4.34 33.3757 3.74 33.1757C3.14 32.9623 2.59333 32.6823 2.1 32.3357C1.62 31.9757 1.24 31.5423 0.96 31.0357C0.68 30.529 0.54 29.929 0.54 29.2357C0.54 28.689 0.633333 28.2157 0.82 27.8157C1.00667 27.4023 1.25333 27.049 1.56 26.7557C1.88 26.449 2.22 26.2023 2.58 26.0157C2.94 25.829 3.29333 25.6823 3.64 25.5757C4 25.469 4.31333 25.409 4.58 25.3957L4.96 25.7757C4.85333 25.8823 4.72667 26.0157 4.58 26.1757C4.43333 26.3357 4.28667 26.5357 4.14 26.7757C3.99333 27.0157 3.87333 27.309 3.78 27.6557C3.7 27.989 3.67333 28.3823 3.7 28.8357C3.72667 29.5023 3.87333 30.0957 4.14 30.6157C4.40667 31.1223 4.74667 31.549 5.16 31.8957C5.58667 32.229 6.06667 32.4823 6.6 32.6557C7.13333 32.829 7.68667 32.9157 8.26 32.9157C8.96667 32.9157 9.58 32.769 10.1 32.4757C10.6333 32.169 11.0733 31.7757 11.42 31.2957C11.7667 30.8157 12.02 30.289 12.18 29.7157C12.34 29.1423 12.4067 28.5757 12.38 28.0157C12.3533 27.4557 12.2333 26.949 12.02 26.4957C11.8733 26.1757 11.6933 25.9423 11.48 25.7957C11.28 25.649 11.0467 25.5757 10.78 25.5757H10.48V25.3757H15.16V25.5757H14.88C14.5733 25.5757 14.3733 25.6757 14.28 25.8757C14.2 26.0623 14.16 26.3157 14.16 26.6357ZM34.3328 19.2757L34.4928 21.4557L28.5528 31.7557C28.5528 31.7557 28.4861 31.8757 28.3528 32.1157C28.2195 32.3423 28.0861 32.6223 27.9528 32.9557C27.8328 33.289 27.7728 33.6223 27.7728 33.9557H27.5728L26.7928 32.2157L34.3328 19.2757ZM20.7728 32.0957V33.5557H18.5528V33.3557C18.5661 33.3557 18.6261 33.3557 18.7328 33.3557C18.8261 33.3557 18.8728 33.3557 18.8728 33.3557C19.2328 33.3557 19.5528 33.249 19.8328 33.0357C20.1128 32.809 20.2795 32.4957 20.3328 32.0957H20.7728ZM21.6528 32.4157C21.6528 32.429 21.6528 32.4423 21.6528 32.4557C21.6528 32.469 21.6528 32.489 21.6528 32.5157C21.6528 32.729 21.7261 32.929 21.8728 33.1157C22.0328 33.289 22.2195 33.3757 22.4328 33.3757H22.7328V33.5557H21.5128V32.4157H21.6528ZM21.9928 19.2757H22.1728L22.8728 21.2757L21.5328 33.5557H20.1328L21.9928 19.2757ZM22.1728 19.2757L28.7128 30.0157L27.5728 33.9557L21.6528 24.0157L22.1728 19.2757ZM34.5128 19.2757L36.4128 33.5557H33.1928L32.1928 24.3557L34.3328 19.2757H34.5128ZM35.7928 32.0957H36.2128C36.2795 32.4957 36.4528 32.809 36.7328 33.0357C37.0128 33.249 37.3261 33.3557 37.6728 33.3557C37.6728 33.3557 37.7261 33.3557 37.8328 33.3557C37.9395 33.3557 37.9928 33.3557 37.9928 33.3557V33.5557H35.7928V32.0957ZM33.0728 32.4157H33.2128V33.5557H31.9928V33.3757H32.2928C32.5195 33.3757 32.7061 33.289 32.8528 33.1157C32.9995 32.929 33.0728 32.729 33.0728 32.5157C33.0728 32.489 33.0728 32.469 33.0728 32.4557C33.0728 32.4423 33.0728 32.429 33.0728 32.4157ZM43.6753 19.2757L50.2153 33.4357H46.6153L42.4553 23.1357L43.6753 19.2757ZM39.3753 32.0957C39.2686 32.3623 39.2486 32.589 39.3153 32.7757C39.382 32.9623 39.4953 33.109 39.6553 33.2157C39.8153 33.309 39.9753 33.3557 40.1353 33.3557H40.3153V33.5557H36.0353V33.3557C36.0353 33.3557 36.0686 33.3557 36.1353 33.3557C36.1886 33.3557 36.2153 33.3557 36.2153 33.3557C36.522 33.3557 36.8353 33.2623 37.1553 33.0757C37.4886 32.8757 37.762 32.549 37.9753 32.0957H39.3753ZM43.6753 19.2757L43.7553 21.7157L38.7953 33.4957H37.3353L42.5153 21.8957C42.5553 21.8157 42.622 21.669 42.7153 21.4557C42.822 21.229 42.9286 20.9757 43.0353 20.6957C43.1553 20.4157 43.262 20.149 43.3553 19.8957C43.4486 19.629 43.4953 19.4223 43.4953 19.2757H43.6753ZM45.7753 28.7957V29.6357H39.8953V28.7957H45.7753ZM46.0753 32.0957H49.5753C49.802 32.549 50.0753 32.8757 50.3953 33.0757C50.7153 33.2623 51.0286 33.3557 51.3353 33.3557C51.3353 33.3557 51.362 33.3557 51.4153 33.3557C51.4686 33.3557 51.4953 33.3557 51.4953 33.3557V33.5557H45.1353V33.3557H45.3153C45.582 33.3557 45.8153 33.249 46.0153 33.0357C46.2153 32.809 46.2353 32.4957 46.0753 32.0957ZM43.6153 16.7357C44.1353 16.7357 44.5753 16.869 44.9353 17.1357C45.2953 17.389 45.4753 17.7357 45.4753 18.1757C45.4753 18.589 45.2953 18.9357 44.9353 19.2157C44.5753 19.4957 44.1353 19.6357 43.6153 19.6357C43.0953 19.6357 42.6486 19.5023 42.2753 19.2357C41.9153 18.9557 41.742 18.609 41.7553 18.1957C41.742 17.7557 41.9153 17.4023 42.2753 17.1357C42.6486 16.869 43.0953 16.7357 43.6153 16.7357ZM43.6153 17.1357C43.362 17.1357 43.1486 17.229 42.9753 17.4157C42.8153 17.6023 42.7353 17.8623 42.7353 18.1957C42.7353 18.5023 42.8153 18.7557 42.9753 18.9557C43.1486 19.1423 43.362 19.2357 43.6153 19.2357C43.8686 19.2357 44.0753 19.1423 44.2353 18.9557C44.4086 18.7557 44.4886 18.5023 44.4753 18.1957C44.4886 17.8623 44.4086 17.6023 44.2353 17.4157C44.0753 17.229 43.8686 17.1357 43.6153 17.1357ZM55.1113 19.5557V33.5557H52.1113V19.5557H55.1113ZM60.3913 32.6957L60.8713 33.5557H55.0513V32.6957H60.3913ZM61.8513 29.4557L60.9313 33.5557H57.0113L57.7313 32.6957C58.3979 32.6957 58.9846 32.569 59.4913 32.3157C59.9979 32.049 60.4313 31.6757 60.7913 31.1957C61.1513 30.7023 61.4379 30.1223 61.6513 29.4557H61.8513ZM52.1713 32.0957V33.5557H50.5713V33.3557C50.5713 33.3557 50.6113 33.3557 50.6913 33.3557C50.7846 33.3557 50.8313 33.3557 50.8313 33.3557C51.1779 33.3557 51.4713 33.2357 51.7113 32.9957C51.9646 32.7423 52.0979 32.4423 52.1113 32.0957H52.1713ZM52.1713 21.0157H52.1113C52.0979 20.669 51.9646 20.3757 51.7113 20.1357C51.4713 19.8823 51.1779 19.7557 50.8313 19.7557C50.8313 19.7557 50.7846 19.7557 50.6913 19.7557C50.6113 19.7557 50.5713 19.7557 50.5713 19.7557V19.5557H52.1713V21.0157ZM55.0513 21.0157V19.5557H56.6513V19.7557C56.6379 19.7557 56.5913 19.7557 56.5113 19.7557C56.4313 19.7557 56.3913 19.7557 56.3913 19.7557C56.0446 19.7557 55.7446 19.8823 55.4913 20.1357C55.2513 20.3757 55.1246 20.669 55.1113 21.0157H55.0513ZM66.1378 19.5557V33.5557H63.1378V19.5557H66.1378ZM71.4178 32.6957L71.8978 33.5557H66.0778V32.6957H71.4178ZM70.6778 26.2357V27.0757H66.0778V26.2357H70.6778ZM71.6578 19.5557V20.4157H66.0778V19.5557H71.6578ZM72.8778 29.4557L71.9578 33.5557H68.0378L68.7578 32.6957C69.4245 32.6957 70.0111 32.569 70.5178 32.3157C71.0245 32.049 71.4578 31.6757 71.8178 31.1957C72.1778 30.7023 72.4645 30.1223 72.6778 29.4557H72.8778ZM70.6778 27.0357V28.9557H70.4778V28.7957C70.4778 28.3023 70.3178 27.8957 69.9978 27.5757C69.6778 27.2557 69.2711 27.089 68.7778 27.0757V27.0357H70.6778ZM70.6778 24.3557V26.2757H68.7778V26.2357C69.2711 26.2223 69.6778 26.0557 69.9978 25.7357C70.3178 25.4023 70.4778 24.989 70.4778 24.4957V24.3557H70.6778ZM71.6578 20.3557V22.6957H71.4578V22.4557C71.4578 21.8423 71.2711 21.349 70.8978 20.9757C70.5378 20.6023 70.0445 20.409 69.4178 20.3957V20.3557H71.6578ZM71.6578 19.1957V19.7757L69.2178 19.5557C69.5111 19.5557 69.8178 19.5357 70.1378 19.4957C70.4711 19.4557 70.7778 19.409 71.0578 19.3557C71.3378 19.3023 71.5378 19.249 71.6578 19.1957ZM63.1978 32.0957V33.5557H61.5978V33.3557C61.5978 33.3557 61.6378 33.3557 61.7178 33.3557C61.8111 33.3557 61.8578 33.3557 61.8578 33.3557C62.2045 33.3557 62.4978 33.2357 62.7378 32.9957C62.9911 32.7423 63.1245 32.4423 63.1378 32.0957H63.1978ZM63.1978 21.0157H63.1378C63.1245 20.669 62.9911 20.3757 62.7378 20.1357C62.4978 19.8823 62.2045 19.7557 61.8578 19.7557C61.8578 19.7557 61.8111 19.7557 61.7178 19.7557C61.6378 19.7557 61.5978 19.7557 61.5978 19.7557V19.5557H63.1978V21.0157ZM77.2964 19.5557H79.8764C80.4764 19.5557 81.0631 19.6223 81.6364 19.7557C82.2097 19.889 82.7164 20.1023 83.1564 20.3957C83.6097 20.689 83.9697 21.0757 84.2364 21.5557C84.5031 22.0357 84.6364 22.629 84.6364 23.3357C84.6364 23.8957 84.5164 24.4557 84.2764 25.0157C84.0497 25.5623 83.6964 26.0357 83.2164 26.4357C82.7364 26.8223 82.1164 27.0557 81.3564 27.1357C81.7831 27.269 82.1697 27.509 82.5164 27.8557C82.8764 28.2023 83.1697 28.549 83.3964 28.8957C83.4097 28.9223 83.4831 29.0423 83.6164 29.2557C83.7631 29.469 83.9364 29.7357 84.1364 30.0557C84.3497 30.3623 84.5697 30.6757 84.7964 30.9957C85.0231 31.3157 85.2297 31.5957 85.4164 31.8357C85.7097 32.1957 85.9764 32.489 86.2164 32.7157C86.4564 32.929 86.7097 33.089 86.9764 33.1957C87.2431 33.289 87.5497 33.3423 87.8964 33.3557V33.5557H85.9364C85.2164 33.5557 84.5631 33.4957 83.9764 33.3757C83.3897 33.2423 82.8697 33.0223 82.4164 32.7157C81.9631 32.409 81.5697 31.9957 81.2364 31.4757C81.1297 31.3157 81.0097 31.1157 80.8764 30.8757C80.7564 30.6223 80.6297 30.3557 80.4964 30.0757C80.3631 29.7957 80.2297 29.529 80.0964 29.2757C79.9764 29.009 79.8697 28.769 79.7764 28.5557C79.6831 28.3423 79.6164 28.1757 79.5764 28.0557C79.4031 27.629 79.1964 27.309 78.9564 27.0957C78.7297 26.8823 78.4831 26.7557 78.2164 26.7157V26.5157C78.2564 26.5157 78.3364 26.5157 78.4564 26.5157C78.5764 26.5157 78.7031 26.5157 78.8364 26.5157C79.1964 26.5157 79.5431 26.4423 79.8764 26.2957C80.2231 26.149 80.5297 25.909 80.7964 25.5757C81.0631 25.2423 81.2497 24.7823 81.3564 24.1957C81.3831 24.0757 81.4031 23.9357 81.4164 23.7757C81.4431 23.6157 81.4497 23.4357 81.4364 23.2357C81.3964 22.2757 81.1564 21.5757 80.7164 21.1357C80.2764 20.6823 79.7297 20.449 79.0764 20.4357C78.8897 20.4223 78.6831 20.4223 78.4564 20.4357C78.2431 20.4357 78.0431 20.4357 77.8564 20.4357C77.6831 20.4357 77.5631 20.4357 77.4964 20.4357C77.4964 20.4223 77.4764 20.349 77.4364 20.2157C77.4097 20.069 77.3764 19.9223 77.3364 19.7757C77.3097 19.629 77.2964 19.5557 77.2964 19.5557ZM77.5564 19.5557V33.5557H74.5564V19.5557H77.5564ZM74.6164 32.0957V33.5557H73.0164V33.3557C73.0297 33.3557 73.0697 33.3557 73.1364 33.3557C73.2164 33.3557 73.2631 33.3557 73.2764 33.3557C73.6231 33.3557 73.9164 33.2357 74.1564 32.9957C74.4097 32.7423 74.5431 32.4423 74.5564 32.0957H74.6164ZM74.6164 21.0157H74.5564C74.5431 20.669 74.4097 20.3757 74.1564 20.1357C73.9164 19.8823 73.6231 19.7557 73.2764 19.7557C73.2631 19.7557 73.2164 19.7557 73.1364 19.7557C73.0697 19.7557 73.0297 19.7557 73.0164 19.7557V19.5557H74.6164V21.0157ZM77.4964 32.0957H77.5564C77.5564 32.4423 77.6831 32.7423 77.9364 32.9957C78.1897 33.2357 78.4897 33.3557 78.8364 33.3557C78.8631 33.3557 78.9097 33.3557 78.9764 33.3557C79.0431 33.3557 79.0764 33.3557 79.0764 33.3557V33.5557H77.4964V32.0957ZM91.0034 19.5557V33.5557H88.0034V19.5557H91.0034ZM88.0634 32.0957V33.5557H86.4634V33.3557C86.4634 33.3557 86.5034 33.3557 86.5834 33.3557C86.6768 33.3557 86.7234 33.3557 86.7234 33.3557C87.0701 33.3557 87.3634 33.2357 87.6034 32.9957C87.8568 32.7423 87.9901 32.4423 88.0034 32.0957H88.0634ZM88.0634 21.0157H88.0034C87.9901 20.669 87.8568 20.3757 87.6034 20.1357C87.3634 19.8823 87.0701 19.7557 86.7234 19.7557C86.7234 19.7557 86.6768 19.7557 86.5834 19.7557C86.5034 19.7557 86.4634 19.7557 86.4634 19.7557V19.5557H88.0634V21.0157ZM90.9434 32.0957H91.0034C91.0168 32.4423 91.1434 32.7423 91.3834 32.9957C91.6368 33.2357 91.9368 33.3557 92.2834 33.3557C92.2834 33.3557 92.3234 33.3557 92.4034 33.3557C92.4834 33.3557 92.5301 33.3557 92.5434 33.3557V33.5557H90.9434V32.0957ZM90.9434 21.0157V19.5557H92.5434V19.7557C92.5301 19.7557 92.4834 19.7557 92.4034 19.7557C92.3234 19.7557 92.2834 19.7557 92.2834 19.7557C91.9368 19.7557 91.6368 19.8823 91.3834 20.1357C91.1434 20.3757 91.0168 20.669 91.0034 21.0157H90.9434ZM103.038 19.1557L109.578 33.4357H105.978L101.818 23.0157L103.038 19.1557ZM98.7378 32.0957C98.6311 32.3623 98.6111 32.589 98.6778 32.7757C98.7445 32.9623 98.8578 33.109 99.0178 33.2157C99.1778 33.309 99.3378 33.3557 99.4978 33.3557H99.6778V33.5557H95.3978V33.3557C95.3978 33.3557 95.4311 33.3557 95.4978 33.3557C95.5511 33.3557 95.5778 33.3557 95.5778 33.3557C95.8845 33.3557 96.1978 33.2623 96.5178 33.0757C96.8511 32.8757 97.1245 32.549 97.3378 32.0957H98.7378ZM103.038 19.1557L103.118 21.5957L98.1578 33.4957H96.6978L101.878 21.7757C101.918 21.6957 101.984 21.549 102.078 21.3357C102.184 21.109 102.291 20.8557 102.398 20.5757C102.518 20.2957 102.624 20.029 102.718 19.7757C102.811 19.509 102.858 19.3023 102.858 19.1557H103.038ZM105.138 28.7957V29.6357H99.2578V28.7957H105.138ZM105.438 32.0957H108.938C109.164 32.549 109.438 32.8757 109.758 33.0757C110.078 33.2623 110.391 33.3557 110.698 33.3557C110.698 33.3557 110.724 33.3557 110.778 33.3557C110.831 33.3557 110.858 33.3557 110.858 33.3557V33.5557H104.498V33.3557H104.678C104.944 33.3557 105.178 33.249 105.378 33.0357C105.578 32.809 105.598 32.4957 105.438 32.0957ZM112.254 19.5557H115.714C116.687 19.5557 117.554 19.6757 118.314 19.9157C119.087 20.1423 119.694 20.509 120.134 21.0157C120.574 21.509 120.794 22.1623 120.794 22.9757C120.794 23.589 120.674 24.109 120.434 24.5357C120.207 24.9623 119.907 25.289 119.534 25.5157C119.16 25.7423 118.767 25.8823 118.354 25.9357C119.02 25.989 119.62 26.1757 120.154 26.4957C120.7 26.8157 121.127 27.2423 121.434 27.7757C121.74 28.309 121.894 28.9357 121.894 29.6557C121.894 30.509 121.66 31.229 121.194 31.8157C120.727 32.389 120.067 32.8223 119.214 33.1157C118.374 33.409 117.394 33.5557 116.274 33.5557H114.294C114.294 33.5557 114.294 33.4823 114.294 33.3357C114.307 33.1757 114.314 33.0223 114.314 32.8757C114.314 32.729 114.314 32.6557 114.314 32.6557H115.394C115.994 32.6557 116.52 32.5423 116.974 32.3157C117.44 32.089 117.8 31.7357 118.054 31.2557C118.32 30.7757 118.454 30.1623 118.454 29.4157C118.454 28.829 118.36 28.329 118.174 27.9157C118 27.5023 117.76 27.169 117.454 26.9157C117.16 26.649 116.814 26.4557 116.414 26.3357C116.014 26.2157 115.594 26.1557 115.154 26.1557V25.9757C115.46 25.9757 115.76 25.929 116.054 25.8357C116.347 25.729 116.607 25.569 116.834 25.3557C117.074 25.1423 117.26 24.8623 117.394 24.5157C117.527 24.1557 117.594 23.729 117.594 23.2357C117.594 22.5557 117.487 22.009 117.274 21.5957C117.074 21.1823 116.78 20.8823 116.394 20.6957C116.007 20.509 115.56 20.4157 115.054 20.4157H112.454C112.454 20.4023 112.434 20.329 112.394 20.1957C112.367 20.049 112.334 19.909 112.294 19.7757C112.267 19.629 112.254 19.5557 112.254 19.5557ZM114.474 19.5557V33.5557H111.474V19.5557H114.474ZM111.534 32.0957V33.5557H109.934V33.3557C109.96 33.3557 110.007 33.3557 110.074 33.3557C110.14 33.3557 110.18 33.3557 110.194 33.3557C110.54 33.3557 110.834 33.2357 111.074 32.9957C111.327 32.7423 111.46 32.4423 111.474 32.0957H111.534ZM111.534 21.0157H111.474C111.46 20.669 111.327 20.3757 111.074 20.1357C110.834 19.8823 110.54 19.7557 110.194 19.7557C110.18 19.7557 110.14 19.7557 110.074 19.7557C110.007 19.7557 109.96 19.7557 109.934 19.7557V19.5557H111.534V21.0157Z" fill="white"/>
</svg>
