<svg width="114" height="38" viewBox="0 0 114 38" fill="none" xmlns="http://www.w3.org/2000/svg">
<path d="M0.710227 6.99006V4.45455H12.6562V6.99006H8.20312V19H5.16335V6.99006H0.710227ZM14.1533 19H10.8579L15.8792 4.45455H19.8423L24.8565 19H21.561L17.9175 7.77841H17.8039L14.1533 19ZM13.9474 13.2827H21.7315V15.6832H13.9474V13.2827ZM15.6945 2.96307C15.2873 2.96307 14.937 2.82102 14.6434 2.53693C14.3498 2.24811 14.2031 1.9072 14.2031 1.5142C14.2031 1.11174 14.3498 0.770833 14.6434 0.491476C14.937 0.21212 15.2873 0.0724425 15.6945 0.0724425C16.1065 0.0724425 16.4545 0.21212 16.7386 0.491476C17.0274 0.770833 17.1718 1.11174 17.1718 1.5142C17.1718 1.9072 17.0274 2.24811 16.7386 2.53693C16.4545 2.82102 16.1065 2.96307 15.6945 2.96307ZM20.0411 2.96307C19.6339 2.96307 19.2835 2.82102 18.99 2.53693C18.6964 2.24811 18.5496 1.9072 18.5496 1.5142C18.5496 1.11174 18.6964 0.770833 18.99 0.491476C19.2835 0.21212 19.6339 0.0724425 20.0411 0.0724425C20.4531 0.0724425 20.8011 0.21212 21.0852 0.491476C21.374 0.770833 21.5184 1.11174 21.5184 1.5142C21.5184 1.9072 21.374 2.24811 21.0852 2.53693C20.8011 2.82102 20.4531 2.96307 20.0411 2.96307ZM25.4072 19V4.45455H31.231C32.3011 4.45455 33.1936 4.61316 33.9086 4.9304C34.6236 5.24763 35.161 5.68797 35.5208 6.25142C35.8807 6.81013 36.0606 7.45407 36.0606 8.18324C36.0606 8.75142 35.9469 9.25095 35.7197 9.68182C35.4924 10.108 35.1799 10.4583 34.7822 10.733C34.3892 11.0028 33.9394 11.1946 33.4327 11.3082V11.4503C33.9867 11.474 34.5052 11.6302 34.9881 11.919C35.4758 12.2079 35.8712 12.6127 36.1742 13.1335C36.4772 13.6496 36.6288 14.2652 36.6288 14.9801C36.6288 15.7519 36.437 16.4408 36.0535 17.0469C35.6747 17.6482 35.1136 18.1241 34.3702 18.4744C33.6269 18.8248 32.7107 19 31.6217 19H25.4072ZM28.4825 16.4858H30.9896C31.8466 16.4858 32.4716 16.3224 32.8646 15.9957C33.2576 15.6643 33.454 15.224 33.454 14.6747C33.454 14.2723 33.357 13.9171 33.1629 13.6094C32.9687 13.3016 32.6917 13.0601 32.3319 12.8849C31.9768 12.7098 31.553 12.6222 31.0606 12.6222H28.4825V16.4858ZM28.4825 10.5412H30.7623C31.1837 10.5412 31.5577 10.4678 31.8844 10.321C32.2159 10.1695 32.4763 9.95644 32.6657 9.68182C32.8598 9.4072 32.9569 9.07812 32.9569 8.6946C32.9569 8.16903 32.7699 7.74527 32.3958 7.4233C32.0265 7.10133 31.5009 6.94034 30.8191 6.94034H28.4825V10.5412ZM36.5776 4.45455H40.0222L43.3389 10.7188H43.481L46.7977 4.45455H50.2423L44.9369 13.858V19H41.883V13.858L36.5776 4.45455ZM54.1509 19V4.45455H59.9748C61.0449 4.45455 61.9374 4.61316 62.6523 4.9304C63.3673 5.24763 63.9047 5.68797 64.2646 6.25142C64.6244 6.81013 64.8043 7.45407 64.8043 8.18324C64.8043 8.75142 64.6907 9.25095 64.4634 9.68182C64.2362 10.108 63.9237 10.4583 63.5259 10.733C63.1329 11.0028 62.6831 11.1946 62.1765 11.3082V11.4503C62.7305 11.474 63.2489 11.6302 63.7319 11.919C64.2196 12.2079 64.6149 12.6127 64.918 13.1335C65.221 13.6496 65.3725 14.2652 65.3725 14.9801C65.3725 15.7519 65.1808 16.4408 64.7972 17.0469C64.4184 17.6482 63.8574 18.1241 63.114 18.4744C62.3706 18.8248 61.4544 19 60.3654 19H54.1509ZM57.2262 16.4858H59.7333C60.5903 16.4858 61.2153 16.3224 61.6083 15.9957C62.0013 15.6643 62.1978 15.224 62.1978 14.6747C62.1978 14.2723 62.1007 13.9171 61.9066 13.6094C61.7125 13.3016 61.4355 13.0601 61.0756 12.8849C60.7205 12.7098 60.2968 12.6222 59.8043 12.6222H57.2262V16.4858ZM57.2262 10.5412H59.506C59.9274 10.5412 60.3015 10.4678 60.6282 10.321C60.9596 10.1695 61.2201 9.95644 61.4094 9.68182C61.6036 9.4072 61.7006 9.07812 61.7006 8.6946C61.7006 8.16903 61.5136 7.74527 61.1396 7.4233C60.7702 7.10133 60.2447 6.94034 59.5629 6.94034H57.2262V10.5412ZM65.3213 4.45455H68.7659L72.0827 10.7188H72.2247L75.5415 4.45455H78.9861L73.6807 13.858V19H70.6267V13.858L65.3213 4.45455ZM88.2317 9.15625C88.1323 8.81061 87.9926 8.50521 87.8127 8.24006C87.6328 7.97017 87.4126 7.7429 87.1522 7.55824C86.8965 7.36884 86.603 7.22443 86.2715 7.125C85.9448 7.02557 85.5826 6.97585 85.1849 6.97585C84.4415 6.97585 83.7881 7.16051 83.2246 7.52983C82.6659 7.89915 82.2303 8.43655 81.9178 9.14205C81.6053 9.8428 81.4491 10.6998 81.4491 11.7131C81.4491 12.7263 81.603 13.5881 81.9107 14.2983C82.2185 15.0085 82.6541 15.5507 83.2175 15.9247C83.781 16.294 84.4462 16.4787 85.2133 16.4787C85.9093 16.4787 86.5035 16.3556 86.996 16.1094C87.4931 15.8584 87.8719 15.5057 88.1323 15.0511C88.3975 14.5966 88.53 14.0592 88.53 13.4389L89.155 13.5312H85.405V11.2159H91.4917V13.0483C91.4917 14.3267 91.2218 15.4252 90.682 16.3438C90.1423 17.2576 89.3989 17.9631 88.4519 18.4602C87.5049 18.9527 86.4207 19.1989 85.1991 19.1989C83.8354 19.1989 82.6375 18.8982 81.6053 18.2969C80.5731 17.6908 79.7682 16.8314 79.1906 15.7188C78.6176 14.6013 78.3312 13.2756 78.3312 11.7415C78.3312 10.5625 78.5016 9.51136 78.8425 8.58807C79.1882 7.66004 79.6711 6.87405 80.2914 6.23011C80.9117 5.58617 81.6337 5.09612 82.4576 4.75994C83.2815 4.42377 84.174 4.25568 85.1352 4.25568C85.959 4.25568 86.7261 4.37642 87.4363 4.6179C88.1465 4.85464 88.7763 5.19081 89.3255 5.62642C89.8795 6.06203 90.3317 6.58049 90.682 7.18182C91.0324 7.77841 91.2573 8.43655 91.3567 9.15625H88.2317ZM102.247 9.15625C102.147 8.81061 102.007 8.50521 101.828 8.24006C101.648 7.97017 101.427 7.7429 101.167 7.55824C100.911 7.36884 100.618 7.22443 100.286 7.125C99.9597 7.02557 99.5974 6.97585 99.1997 6.97585C98.4563 6.97585 97.8029 7.16051 97.2395 7.52983C96.6808 7.89915 96.2452 8.43655 95.9327 9.14205C95.6202 9.8428 95.4639 10.6998 95.4639 11.7131C95.4639 12.7263 95.6178 13.5881 95.9256 14.2983C96.2333 15.0085 96.6689 15.5507 97.2324 15.9247C97.7958 16.294 98.4611 16.4787 99.2281 16.4787C99.9241 16.4787 100.518 16.3556 101.011 16.1094C101.508 15.8584 101.887 15.5057 102.147 15.0511C102.412 14.5966 102.545 14.0592 102.545 13.4389L103.17 13.5312H99.4199V11.2159H105.507V13.0483C105.507 14.3267 105.237 15.4252 104.697 16.3438C104.157 17.2576 103.414 17.9631 102.467 18.4602C101.52 18.9527 100.436 19.1989 99.2139 19.1989C97.8503 19.1989 96.6524 18.8982 95.6202 18.2969C94.588 17.6908 93.7831 16.8314 93.2054 15.7188C92.6325 14.6013 92.346 13.2756 92.346 11.7415C92.346 10.5625 92.5165 9.51136 92.8574 8.58807C93.203 7.66004 93.686 6.87405 94.3063 6.23011C94.9265 5.58617 95.6486 5.09612 96.4724 4.75994C97.2963 4.42377 98.1888 4.25568 99.15 4.25568C99.9739 4.25568 100.741 4.37642 101.451 4.6179C102.161 4.85464 102.791 5.19081 103.34 5.62642C103.894 6.06203 104.346 6.58049 104.697 7.18182C105.047 7.77841 105.272 8.43655 105.372 9.15625H102.247ZM5.66761 37.2131C4.66383 37.2131 3.79735 37.0331 3.06818 36.6733C2.33902 36.3134 1.77794 35.8258 1.38494 35.2102C0.996686 34.59 0.802557 33.8987 0.802557 33.1364C0.802557 32.5682 0.916193 32.0639 1.14347 31.6236C1.37074 31.1832 1.68797 30.7784 2.09517 30.4091C2.50237 30.035 2.97585 29.6634 3.51562 29.294L6.33523 27.4403C6.69981 27.2083 6.96733 26.9645 7.13778 26.7088C7.30824 26.4484 7.39347 26.1667 7.39347 25.8636C7.39347 25.5748 7.27746 25.3073 7.04545 25.0611C6.81345 24.8149 6.48438 24.6941 6.05824 24.6989C5.77415 24.6989 5.52794 24.7628 5.3196 24.8906C5.11127 25.0137 4.94792 25.1771 4.82955 25.3807C4.71591 25.5795 4.65909 25.8021 4.65909 26.0483C4.65909 26.3513 4.74432 26.6591 4.91477 26.9716C5.08523 27.2841 5.3125 27.6155 5.59659 27.9659C5.88068 28.3116 6.19081 28.6856 6.52699 29.0881L13.4233 37H10.2699L4.51705 30.5938C4.13826 30.1629 3.75947 29.7131 3.38068 29.2443C3.00663 28.7708 2.69413 28.2689 2.44318 27.7386C2.19223 27.2036 2.06676 26.6236 2.06676 25.9986C2.06676 25.2931 2.23011 24.6586 2.55682 24.0952C2.88826 23.5317 3.35227 23.0866 3.94886 22.7599C4.54545 22.4285 5.24148 22.2628 6.03693 22.2628C6.81345 22.2628 7.48343 22.4214 8.04688 22.7386C8.61506 23.0511 9.05066 23.4678 9.35369 23.9886C9.66146 24.5047 9.81534 25.0729 9.81534 25.6932C9.81534 26.3797 9.64489 27.0024 9.30398 27.5611C8.9678 28.1151 8.49432 28.6122 7.88352 29.0526L4.91477 31.1903C4.51231 31.4839 4.21402 31.7846 4.01989 32.0923C3.83049 32.3954 3.7358 32.6866 3.7358 32.9659C3.7358 33.3116 3.82102 33.6217 3.99148 33.8963C4.16193 34.1709 4.40341 34.3887 4.71591 34.5497C5.02841 34.706 5.39536 34.7841 5.81676 34.7841C6.32812 34.7841 6.83239 34.6681 7.32955 34.4361C7.83144 34.1993 8.28599 33.8655 8.69318 33.4347C9.10511 32.9991 9.43419 32.483 9.6804 31.8864C9.92661 31.2898 10.0497 30.6293 10.0497 29.9048H12.5568C12.5568 30.795 12.4598 31.5975 12.2656 32.3125C12.0715 33.0227 11.8016 33.643 11.456 34.1733C11.1103 34.6989 10.715 35.1297 10.2699 35.4659C10.1278 35.5559 9.99053 35.6411 9.85795 35.7216C9.72538 35.8021 9.58807 35.8873 9.44602 35.9773C8.90625 36.4129 8.30256 36.7277 7.63494 36.9219C6.97206 37.116 6.31629 37.2131 5.66761 37.2131ZM16.9697 22.4545H20.7623L24.768 32.2273H24.9384L28.9441 22.4545H32.7367V37H29.7538V27.5327H29.633L25.8688 36.929H23.8376L20.0734 27.4972H19.9526V37H16.9697V22.4545ZM36.5776 37H33.2821L38.3034 22.4545H42.2665L47.2807 37H43.9852L40.3418 25.7784H40.2281L36.5776 37ZM36.3716 31.2827H44.1557V33.6832H36.3716V31.2827ZM40.2849 21.6165C39.6789 21.6165 39.1628 21.4081 38.7366 20.9915C38.3105 20.5701 38.0974 20.0658 38.0974 19.4787C38.0974 19.0857 38.1945 18.7282 38.3886 18.4062C38.5875 18.0795 38.8527 17.8215 39.1841 17.6321C39.5155 17.438 39.8825 17.3409 40.2849 17.3409C40.6874 17.3409 41.0544 17.438 41.3858 17.6321C41.7172 17.8215 41.98 18.0795 42.1741 18.4062C42.373 18.7282 42.4724 19.0857 42.4724 19.4787C42.4724 19.8717 42.373 20.2315 42.1741 20.5582C41.98 20.8802 41.7172 21.1383 41.3858 21.3324C41.0544 21.5218 40.6874 21.6165 40.2849 21.6165ZM40.2849 20.402C40.5501 20.402 40.775 20.312 40.9597 20.1321C41.1443 19.9522 41.2366 19.732 41.2366 19.4716C41.2366 19.2159 41.1443 18.9981 40.9597 18.8182C40.775 18.6383 40.5501 18.5483 40.2849 18.5483C40.0198 18.553 39.7925 18.6454 39.6031 18.8253C39.4185 19.0052 39.3261 19.223 39.3261 19.4787C39.3261 19.7344 39.4185 19.9545 39.6031 20.1392C39.7878 20.3191 40.0151 20.4067 40.2849 20.402ZM47.8314 37V22.4545H50.9067V34.4645H57.1425V37H47.8314ZM57.979 37V22.4545H67.7802V24.9901H61.0543V28.456H67.2759V30.9915H61.0543V34.4645H67.8086V37H57.979ZM69.0251 37V22.4545H74.7638C75.8623 22.4545 76.7998 22.651 77.5763 23.044C78.3575 23.4323 78.9518 23.9839 79.359 24.6989C79.7709 25.4091 79.9769 26.2448 79.9769 27.206C79.9769 28.1719 79.7685 29.0028 79.3519 29.6989C78.9352 30.3902 78.3315 30.9205 77.5408 31.2898C76.7548 31.6591 75.8031 31.8438 74.6857 31.8438H70.8433V29.3722H74.1885C74.7756 29.3722 75.2633 29.2917 75.6516 29.1307C76.0398 28.9697 76.3286 28.7282 76.518 28.4062C76.7122 28.0843 76.8092 27.6842 76.8092 27.206C76.8092 26.723 76.7122 26.3158 76.518 25.9844C76.3286 25.6529 76.0375 25.402 75.6445 25.2315C75.2562 25.0563 74.7661 24.9688 74.1743 24.9688H72.1004V37H69.0251ZM76.8803 30.3807L80.4953 37H77.1004L73.5635 30.3807H76.8803ZM84.0254 22.4545V37H80.9501V22.4545H84.0254ZM91.2916 37H87.9962L93.0175 22.4545H96.9805L101.995 37H98.6993L95.0558 25.7784H94.9422L91.2916 37ZM91.0857 31.2827H98.8697V33.6832H91.0857V31.2827ZM102.545 37V22.4545H108.369C109.439 22.4545 110.332 22.6132 111.047 22.9304C111.762 23.2476 112.299 23.688 112.659 24.2514C113.019 24.8101 113.199 25.4541 113.199 26.1832C113.199 26.7514 113.085 27.2509 112.858 27.6818C112.631 28.108 112.318 28.4583 111.92 28.733C111.527 29.0028 111.078 29.1946 110.571 29.3082V29.4503C111.125 29.474 111.643 29.6302 112.126 29.919C112.614 30.2079 113.009 30.6127 113.312 31.1335C113.616 31.6496 113.767 32.2652 113.767 32.9801C113.767 33.7519 113.575 34.4408 113.192 35.0469C112.813 35.6482 112.252 36.1241 111.509 36.4744C110.765 36.8248 109.849 37 108.76 37H102.545ZM105.621 34.4858H108.128C108.985 34.4858 109.61 34.3224 110.003 33.9957C110.396 33.6643 110.592 33.224 110.592 32.6747C110.592 32.2723 110.495 31.9171 110.301 31.6094C110.107 31.3016 109.83 31.0601 109.47 30.8849C109.115 30.7098 108.691 30.6222 108.199 30.6222H105.621V34.4858ZM105.621 28.5412H107.901C108.322 28.5412 108.696 28.4678 109.023 28.321C109.354 28.1695 109.615 27.9564 109.804 27.6818C109.998 27.4072 110.095 27.0781 110.095 26.6946C110.095 26.169 109.908 25.7453 109.534 25.4233C109.165 25.1013 108.639 24.9403 107.957 24.9403H105.621V28.5412Z" fill="#1C274C"/>
</svg>
